<?xml version="1.0" encoding="UTF-8" standalone="no"?><!DOCTYPE svg PUBLIC "-//W3C//DTD SVG 1.1//EN" "http://www.w3.org/Graphics/SVG/1.1/DTD/svg11.dtd"><svg width="100%" height="100%" viewBox="0 0 100 100" version="1.1" xmlns="http://www.w3.org/2000/svg" xmlns:xlink="http://www.w3.org/1999/xlink" xml:space="preserve" xmlns:serif="http://www.serif.com/" style="fill-rule:evenodd;clip-rule:evenodd;stroke-linejoin:round;stroke-miterlimit:1.41421;"><g><g><g id="s"><g id="c"><path id="t" d="M50,1.561l-2.177,6.699l3.35,1.089l-1.173,-7.788Z" style="fill:#fc0;fill-rule:nonzero;"/><path id="t1" serif:id="t" d="M50,1.561l2.177,6.699l-3.35,1.089l1.173,-7.788Z" style="fill:#fc0;fill-rule:nonzero;"/></g><g id="a"><g id="c1" serif:id="c"><path id="t2" serif:id="t" d="M56.699,6.428l-7.044,0l0,3.523l7.044,-3.523Z" style="fill:#fc0;fill-rule:nonzero;"/><path id="t3" serif:id="t" d="M56.699,6.428l-5.698,4.141l-2.071,-2.85l7.769,-1.291Z" style="fill:#fc0;fill-rule:nonzero;"/></g><g id="c2" serif:id="c"><path id="t4" serif:id="t" d="M54.14,14.304l-2.176,-6.699l-3.35,1.088l5.526,5.611Z" style="fill:#fc0;fill-rule:nonzero;"/><path id="t5" serif:id="t" d="M54.14,14.304l-5.698,-4.14l2.07,-2.85l3.628,6.99Z" style="fill:#fc0;fill-rule:nonzero;"/></g></g><g id="a1" serif:id="a"><g id="c3" serif:id="c"><path id="t6" serif:id="t" d="M43.301,6.428l7.044,0l0,3.523l-7.044,-3.523Z" style="fill:#fc0;fill-rule:nonzero;"/><path id="t7" serif:id="t" d="M43.301,6.428l5.698,4.141l2.071,-2.85l-7.769,-1.291Z" style="fill:#fc0;fill-rule:nonzero;"/></g><g id="c4" serif:id="c"><path id="t8" serif:id="t" d="M45.86,14.304l2.176,-6.699l3.35,1.088l-5.526,5.611Z" style="fill:#fc0;fill-rule:nonzero;"/><path id="t9" serif:id="t" d="M45.86,14.304l5.698,-4.14l-2.07,-2.85l-3.628,6.99Z" style="fill:#fc0;fill-rule:nonzero;"/></g></g></g><g id="s1" serif:id="s"><g id="c5" serif:id="c"><path id="t10" serif:id="t" d="M50,86.092l-2.177,6.699l3.35,1.089l-1.173,-7.788Z" style="fill:#fc0;fill-rule:nonzero;"/><path id="t11" serif:id="t" d="M50,86.092l2.177,6.699l-3.35,1.089l1.173,-7.788Z" style="fill:#fc0;fill-rule:nonzero;"/></g><g id="a2" serif:id="a"><g id="c6" serif:id="c"><path id="t12" serif:id="t" d="M56.699,90.959l-7.044,0l0,3.522l7.044,-3.522Z" style="fill:#fc0;fill-rule:nonzero;"/><path id="t13" serif:id="t" d="M56.699,90.959l-5.698,4.141l-2.071,-2.85l7.769,-1.291Z" style="fill:#fc0;fill-rule:nonzero;"/></g><g id="c7" serif:id="c"><path id="t14" serif:id="t" d="M54.14,98.835l-2.176,-6.7l-3.35,1.089l5.526,5.611Z" style="fill:#fc0;fill-rule:nonzero;"/><path id="t15" serif:id="t" d="M54.14,98.835l-5.698,-4.141l2.07,-2.849l3.628,6.99Z" style="fill:#fc0;fill-rule:nonzero;"/></g></g><g id="a3" serif:id="a"><g id="c8" serif:id="c"><path id="t16" serif:id="t" d="M43.301,90.959l7.044,0l0,3.522l-7.044,-3.522Z" style="fill:#fc0;fill-rule:nonzero;"/><path id="t17" serif:id="t" d="M43.301,90.959l5.698,4.141l2.071,-2.85l-7.769,-1.291Z" style="fill:#fc0;fill-rule:nonzero;"/></g><g id="c9" serif:id="c"><path id="t18" serif:id="t" d="M45.86,98.835l2.176,-6.7l3.35,1.089l-5.526,5.611Z" style="fill:#fc0;fill-rule:nonzero;"/><path id="t19" serif:id="t" d="M45.86,98.835l5.698,-4.141l-2.07,-2.849l-3.628,6.99Z" style="fill:#fc0;fill-rule:nonzero;"/></g></g></g><g id="l"><g id="s2" serif:id="s"><g id="c10" serif:id="c"><path id="t20" serif:id="t" d="M7.735,43.826l-2.177,6.7l3.35,1.088l-1.173,-7.788Z" style="fill:#fc0;fill-rule:nonzero;"/><path id="t21" serif:id="t" d="M7.735,43.826l2.176,6.7l-3.349,1.088l1.173,-7.788Z" style="fill:#fc0;fill-rule:nonzero;"/></g><g id="a4" serif:id="a"><g id="c11" serif:id="c"><path id="t22" serif:id="t" d="M14.434,48.694l-7.044,0l0,3.522l7.044,-3.522Z" style="fill:#fc0;fill-rule:nonzero;"/><path id="t23" serif:id="t" d="M14.434,48.694l-5.699,4.14l-2.07,-2.849l7.769,-1.291Z" style="fill:#fc0;fill-rule:nonzero;"/></g><g id="c12" serif:id="c"><path id="t24" serif:id="t" d="M11.875,56.57l-2.177,-6.7l-3.349,1.088l5.526,5.612Z" style="fill:#fc0;fill-rule:nonzero;"/><path id="t25" serif:id="t" d="M11.875,56.57l-5.699,-4.141l2.07,-2.849l3.629,6.99Z" style="fill:#fc0;fill-rule:nonzero;"/></g></g><g id="a5" serif:id="a"><g id="c13" serif:id="c"><path id="t26" serif:id="t" d="M1.035,48.694l7.044,0l0,3.522l-7.044,-3.522Z" style="fill:#fc0;fill-rule:nonzero;"/><path id="t27" serif:id="t" d="M1.035,48.694l5.699,4.14l2.07,-2.849l-7.769,-1.291Z" style="fill:#fc0;fill-rule:nonzero;"/></g><g id="c14" serif:id="c"><path id="t28" serif:id="t" d="M3.594,56.57l2.177,-6.7l3.35,1.088l-5.527,5.612Z" style="fill:#fc0;fill-rule:nonzero;"/><path id="t29" serif:id="t" d="M3.594,56.57l5.699,-4.141l-2.07,-2.849l-3.629,6.99Z" style="fill:#fc0;fill-rule:nonzero;"/></g></g></g><g id="s3" serif:id="s"><g id="c15" serif:id="c"><path id="t30" serif:id="t" d="M24.727,19.967l5.699,-4.141l-2.071,-2.849l-3.628,6.99Z" style="fill:#fc0;fill-rule:nonzero;"/><path id="t31" serif:id="t" d="M24.727,19.967l2.177,-6.7l3.349,1.089l-5.526,5.611Z" style="fill:#fc0;fill-rule:nonzero;"/></g><g id="a6" serif:id="a"><g id="c16" serif:id="c"><path id="t32" serif:id="t" d="M22.168,12.091l5.699,4.14l2.07,-2.849l-7.769,-1.291Z" style="fill:#fc0;fill-rule:nonzero;"/><path id="t33" serif:id="t" d="M22.168,12.091l7.044,0l0,3.522l-7.044,-3.522Z" style="fill:#fc0;fill-rule:nonzero;"/></g><g id="c17" serif:id="c"><path id="t34" serif:id="t" d="M28.867,7.223l-2.176,6.7l3.349,1.088l-1.173,-7.788Z" style="fill:#fc0;fill-rule:nonzero;"/><path id="t35" serif:id="t" d="M28.867,7.223l2.177,6.7l-3.35,1.088l1.173,-7.788Z" style="fill:#fc0;fill-rule:nonzero;"/></g></g><g id="a7" serif:id="a"><g id="c18" serif:id="c"><path id="t36" serif:id="t" d="M33.008,19.967l-5.699,-4.141l2.07,-2.849l3.629,6.99Z" style="fill:#fc0;fill-rule:nonzero;"/><path id="t37" serif:id="t" d="M33.008,19.967l-2.177,-6.7l-3.35,1.089l5.527,5.611Z" style="fill:#fc0;fill-rule:nonzero;"/></g><g id="c19" serif:id="c"><path id="t38" serif:id="t" d="M35.567,12.091l-5.699,4.14l-2.07,-2.849l7.769,-1.291Z" style="fill:#fc0;fill-rule:nonzero;"/><path id="t39" serif:id="t" d="M35.567,12.091l-7.044,0l0,3.522l7.044,-3.522Z" style="fill:#fc0;fill-rule:nonzero;"/></g></g></g><g id="s4" serif:id="s"><g id="c20" serif:id="c"><path id="t40" serif:id="t" d="M17.538,35.437l-2.177,-6.7l-3.35,1.089l5.527,5.611Z" style="fill:#fc0;fill-rule:nonzero;"/><path id="t41" serif:id="t" d="M17.538,35.437l-5.699,-4.141l2.07,-2.849l3.629,6.99Z" style="fill:#fc0;fill-rule:nonzero;"/></g><g id="a8" serif:id="a"><g id="c21" serif:id="c"><path id="t42" serif:id="t" d="M9.257,35.437l5.698,-4.141l-2.07,-2.849l-3.628,6.99Z" style="fill:#fc0;fill-rule:nonzero;"/><path id="t43" serif:id="t" d="M9.257,35.437l2.176,-6.7l3.35,1.089l-5.526,5.611Z" style="fill:#fc0;fill-rule:nonzero;"/></g><g id="c22" serif:id="c"><path id="t44" serif:id="t" d="M6.698,27.561l5.699,4.141l2.07,-2.85l-7.769,-1.291Z" style="fill:#fc0;fill-rule:nonzero;"/><path id="t45" serif:id="t" d="M6.698,27.561l7.044,0l0,3.522l-7.044,-3.522Z" style="fill:#fc0;fill-rule:nonzero;"/></g></g><g id="a9" serif:id="a"><g id="c23" serif:id="c"><path id="t46" serif:id="t" d="M20.097,27.561l-5.699,4.141l-2.071,-2.85l7.77,-1.291Z" style="fill:#fc0;fill-rule:nonzero;"/><path id="t47" serif:id="t" d="M20.097,27.561l-7.045,0l0,3.522l7.045,-3.522Z" style="fill:#fc0;fill-rule:nonzero;"/></g><g id="c24" serif:id="c"><path id="t48" serif:id="t" d="M13.397,22.694l2.177,6.699l-3.35,1.089l1.173,-7.788Z" style="fill:#fc0;fill-rule:nonzero;"/><path id="t49" serif:id="t" d="M13.397,22.694l-2.177,6.699l3.35,1.089l-1.173,-7.788Z" style="fill:#fc0;fill-rule:nonzero;"/></g></g></g><g id="s5" serif:id="s"><g id="c25" serif:id="c"><path id="t50" serif:id="t" d="M20.097,69.827l-7.045,0l0,3.522l7.045,-3.522Z" style="fill:#fc0;fill-rule:nonzero;"/><path id="t51" serif:id="t" d="M20.097,69.827l-5.699,4.14l-2.071,-2.849l7.77,-1.291Z" style="fill:#fc0;fill-rule:nonzero;"/></g><g id="a10" serif:id="a"><g id="c26" serif:id="c"><path id="t52" serif:id="t" d="M17.538,77.702l-2.177,-6.699l-3.35,1.088l5.527,5.611Z" style="fill:#fc0;fill-rule:nonzero;"/><path id="t53" serif:id="t" d="M17.538,77.702l-5.699,-4.14l2.07,-2.85l3.629,6.99Z" style="fill:#fc0;fill-rule:nonzero;"/></g><g id="c27" serif:id="c"><path id="t54" serif:id="t" d="M9.257,77.702l5.698,-4.14l-2.07,-2.85l-3.628,6.99Z" style="fill:#fc0;fill-rule:nonzero;"/><path id="t55" serif:id="t" d="M9.257,77.702l2.176,-6.699l3.35,1.088l-5.526,5.611Z" style="fill:#fc0;fill-rule:nonzero;"/></g></g><g id="a11" serif:id="a"><g id="c28" serif:id="c"><path id="t56" serif:id="t" d="M13.397,64.959l2.177,6.7l-3.35,1.088l1.173,-7.788Z" style="fill:#fc0;fill-rule:nonzero;"/><path id="t57" serif:id="t" d="M13.397,64.959l-2.177,6.7l3.35,1.088l-1.173,-7.788Z" style="fill:#fc0;fill-rule:nonzero;"/></g><g id="c29" serif:id="c"><path id="t58" serif:id="t" d="M6.698,69.827l7.044,0l0,3.522l-7.044,-3.522Z" style="fill:#fc0;fill-rule:nonzero;"/><path id="t59" serif:id="t" d="M6.698,69.827l5.699,4.14l2.07,-2.849l-7.769,-1.291Z" style="fill:#fc0;fill-rule:nonzero;"/></g></g></g><g id="s6" serif:id="s"><g id="c30" serif:id="c"><path id="t60" serif:id="t" d="M35.567,85.297l-7.044,0l0,3.522l7.044,-3.522Z" style="fill:#fc0;fill-rule:nonzero;"/><path id="t61" serif:id="t" d="M35.567,85.297l-5.699,4.14l-2.07,-2.849l7.769,-1.291Z" style="fill:#fc0;fill-rule:nonzero;"/></g><g id="a12" serif:id="a"><g id="c31" serif:id="c"><path id="t62" serif:id="t" d="M33.008,93.172l-2.177,-6.699l-3.35,1.088l5.527,5.611Z" style="fill:#fc0;fill-rule:nonzero;"/><path id="t63" serif:id="t" d="M33.008,93.172l-5.699,-4.14l2.07,-2.849l3.629,6.989Z" style="fill:#fc0;fill-rule:nonzero;"/></g><g id="c32" serif:id="c"><path id="t64" serif:id="t" d="M24.727,93.172l5.699,-4.14l-2.071,-2.849l-3.628,6.989Z" style="fill:#fc0;fill-rule:nonzero;"/><path id="t65" serif:id="t" d="M24.727,93.172l2.177,-6.699l3.349,1.088l-5.526,5.611Z" style="fill:#fc0;fill-rule:nonzero;"/></g></g><g id="a13" serif:id="a"><g id="c33" serif:id="c"><path id="t66" serif:id="t" d="M28.867,80.429l2.177,6.7l-3.35,1.088l1.173,-7.788Z" style="fill:#fc0;fill-rule:nonzero;"/><path id="t67" serif:id="t" d="M28.867,80.429l-2.176,6.7l3.349,1.088l-1.173,-7.788Z" style="fill:#fc0;fill-rule:nonzero;"/></g><g id="c34" serif:id="c"><path id="t68" serif:id="t" d="M22.168,85.297l7.044,0l0,3.522l-7.044,-3.522Z" style="fill:#fc0;fill-rule:nonzero;"/><path id="t69" serif:id="t" d="M22.168,85.297l5.699,4.14l2.07,-2.849l-7.769,-1.291Z" style="fill:#fc0;fill-rule:nonzero;"/></g></g></g></g><g id="l1" serif:id="l"><g id="s7" serif:id="s"><g id="c35" serif:id="c"><path id="t70" serif:id="t" d="M92.265,43.826l2.177,6.7l-3.35,1.088l1.173,-7.788Z" style="fill:#fc0;fill-rule:nonzero;"/><path id="t71" serif:id="t" d="M92.265,43.826l-2.176,6.7l3.349,1.088l-1.173,-7.788Z" style="fill:#fc0;fill-rule:nonzero;"/></g><g id="a14" serif:id="a"><g id="c36" serif:id="c"><path id="t72" serif:id="t" d="M85.566,48.694l7.044,0l0,3.522l-7.044,-3.522Z" style="fill:#fc0;fill-rule:nonzero;"/><path id="t73" serif:id="t" d="M85.566,48.694l5.699,4.14l2.07,-2.849l-7.769,-1.291Z" style="fill:#fc0;fill-rule:nonzero;"/></g><g id="c37" serif:id="c"><path id="t74" serif:id="t" d="M88.125,56.57l2.177,-6.7l3.349,1.088l-5.526,5.612Z" style="fill:#fc0;fill-rule:nonzero;"/><path id="t75" serif:id="t" d="M88.125,56.57l5.699,-4.141l-2.07,-2.849l-3.629,6.99Z" style="fill:#fc0;fill-rule:nonzero;"/></g></g><g id="a15" serif:id="a"><g id="c38" serif:id="c"><path id="t76" serif:id="t" d="M98.965,48.694l-7.044,0l0,3.522l7.044,-3.522Z" style="fill:#fc0;fill-rule:nonzero;"/><path id="t77" serif:id="t" d="M98.965,48.694l-5.699,4.14l-2.07,-2.849l7.769,-1.291Z" style="fill:#fc0;fill-rule:nonzero;"/></g><g id="c39" serif:id="c"><path id="t78" serif:id="t" d="M96.406,56.57l-2.177,-6.7l-3.35,1.088l5.527,5.612Z" style="fill:#fc0;fill-rule:nonzero;"/><path id="t79" serif:id="t" d="M96.406,56.57l-5.699,-4.141l2.07,-2.849l3.629,6.99Z" style="fill:#fc0;fill-rule:nonzero;"/></g></g></g><g id="s8" serif:id="s"><g id="c40" serif:id="c"><path id="t80" serif:id="t" d="M75.273,19.967l-5.699,-4.141l2.071,-2.849l3.628,6.99Z" style="fill:#fc0;fill-rule:nonzero;"/><path id="t81" serif:id="t" d="M75.273,19.967l-2.177,-6.7l-3.349,1.089l5.526,5.611Z" style="fill:#fc0;fill-rule:nonzero;"/></g><g id="a16" serif:id="a"><g id="c41" serif:id="c"><path id="t82" serif:id="t" d="M77.832,12.091l-5.699,4.14l-2.07,-2.849l7.769,-1.291Z" style="fill:#fc0;fill-rule:nonzero;"/><path id="t83" serif:id="t" d="M77.832,12.091l-7.044,0l0,3.522l7.044,-3.522Z" style="fill:#fc0;fill-rule:nonzero;"/></g><g id="c42" serif:id="c"><path id="t84" serif:id="t" d="M71.133,7.223l2.176,6.7l-3.349,1.088l1.173,-7.788Z" style="fill:#fc0;fill-rule:nonzero;"/><path id="t85" serif:id="t" d="M71.133,7.223l-2.177,6.7l3.35,1.088l-1.173,-7.788Z" style="fill:#fc0;fill-rule:nonzero;"/></g></g><g id="a17" serif:id="a"><g id="c43" serif:id="c"><path id="t86" serif:id="t" d="M66.992,19.967l5.699,-4.141l-2.07,-2.849l-3.629,6.99Z" style="fill:#fc0;fill-rule:nonzero;"/><path id="t87" serif:id="t" d="M66.992,19.967l2.177,-6.7l3.35,1.089l-5.527,5.611Z" style="fill:#fc0;fill-rule:nonzero;"/></g><g id="c44" serif:id="c"><path id="t88" serif:id="t" d="M64.433,12.091l5.699,4.14l2.07,-2.849l-7.769,-1.291Z" style="fill:#fc0;fill-rule:nonzero;"/><path id="t89" serif:id="t" d="M64.433,12.091l7.044,0l0,3.522l-7.044,-3.522Z" style="fill:#fc0;fill-rule:nonzero;"/></g></g></g><g id="s9" serif:id="s"><g id="c45" serif:id="c"><path id="t90" serif:id="t" d="M82.462,35.437l2.177,-6.7l3.35,1.089l-5.527,5.611Z" style="fill:#fc0;fill-rule:nonzero;"/><path id="t91" serif:id="t" d="M82.462,35.437l5.699,-4.141l-2.07,-2.849l-3.629,6.99Z" style="fill:#fc0;fill-rule:nonzero;"/></g><g id="a18" serif:id="a"><g id="c46" serif:id="c"><path id="t92" serif:id="t" d="M90.743,35.437l-5.698,-4.141l2.07,-2.849l3.628,6.99Z" style="fill:#fc0;fill-rule:nonzero;"/><path id="t93" serif:id="t" d="M90.743,35.437l-2.176,-6.7l-3.35,1.089l5.526,5.611Z" style="fill:#fc0;fill-rule:nonzero;"/></g><g id="c47" serif:id="c"><path id="t94" serif:id="t" d="M93.302,27.561l-5.699,4.141l-2.07,-2.85l7.769,-1.291Z" style="fill:#fc0;fill-rule:nonzero;"/><path id="t95" serif:id="t" d="M93.302,27.561l-7.044,0l0,3.522l7.044,-3.522Z" style="fill:#fc0;fill-rule:nonzero;"/></g></g><g id="a19" serif:id="a"><g id="c48" serif:id="c"><path id="t96" serif:id="t" d="M79.903,27.561l5.699,4.141l2.071,-2.85l-7.77,-1.291Z" style="fill:#fc0;fill-rule:nonzero;"/><path id="t97" serif:id="t" d="M79.903,27.561l7.045,0l0,3.522l-7.045,-3.522Z" style="fill:#fc0;fill-rule:nonzero;"/></g><g id="c49" serif:id="c"><path id="t98" serif:id="t" d="M86.603,22.694l-2.177,6.699l3.35,1.089l-1.173,-7.788Z" style="fill:#fc0;fill-rule:nonzero;"/><path id="t99" serif:id="t" d="M86.603,22.694l2.177,6.699l-3.35,1.089l1.173,-7.788Z" style="fill:#fc0;fill-rule:nonzero;"/></g></g></g><g id="s10" serif:id="s"><g id="c50" serif:id="c"><path id="t100" serif:id="t" d="M79.903,69.827l7.045,0l0,3.522l-7.045,-3.522Z" style="fill:#fc0;fill-rule:nonzero;"/><path id="t101" serif:id="t" d="M79.903,69.827l5.699,4.14l2.071,-2.849l-7.77,-1.291Z" style="fill:#fc0;fill-rule:nonzero;"/></g><g id="a20" serif:id="a"><g id="c51" serif:id="c"><path id="t102" serif:id="t" d="M82.462,77.702l2.177,-6.699l3.35,1.088l-5.527,5.611Z" style="fill:#fc0;fill-rule:nonzero;"/><path id="t103" serif:id="t" d="M82.462,77.702l5.699,-4.14l-2.07,-2.85l-3.629,6.99Z" style="fill:#fc0;fill-rule:nonzero;"/></g><g id="c52" serif:id="c"><path id="t104" serif:id="t" d="M90.743,77.702l-5.698,-4.14l2.07,-2.85l3.628,6.99Z" style="fill:#fc0;fill-rule:nonzero;"/><path id="t105" serif:id="t" d="M90.743,77.702l-2.176,-6.699l-3.35,1.088l5.526,5.611Z" style="fill:#fc0;fill-rule:nonzero;"/></g></g><g id="a21" serif:id="a"><g id="c53" serif:id="c"><path id="t106" serif:id="t" d="M86.603,64.959l-2.177,6.7l3.35,1.088l-1.173,-7.788Z" style="fill:#fc0;fill-rule:nonzero;"/><path id="t107" serif:id="t" d="M86.603,64.959l2.177,6.7l-3.35,1.088l1.173,-7.788Z" style="fill:#fc0;fill-rule:nonzero;"/></g><g id="c54" serif:id="c"><path id="t108" serif:id="t" d="M93.302,69.827l-7.044,0l0,3.522l7.044,-3.522Z" style="fill:#fc0;fill-rule:nonzero;"/><path id="t109" serif:id="t" d="M93.302,69.827l-5.699,4.14l-2.07,-2.849l7.769,-1.291Z" style="fill:#fc0;fill-rule:nonzero;"/></g></g></g><g id="s11" serif:id="s"><g id="c55" serif:id="c"><path id="t110" serif:id="t" d="M64.433,85.297l7.044,0l0,3.522l-7.044,-3.522Z" style="fill:#fc0;fill-rule:nonzero;"/><path id="t111" serif:id="t" d="M64.433,85.297l5.699,4.14l2.07,-2.849l-7.769,-1.291Z" style="fill:#fc0;fill-rule:nonzero;"/></g><g id="a22" serif:id="a"><g id="c56" serif:id="c"><path id="t112" serif:id="t" d="M66.992,93.172l2.177,-6.699l3.35,1.088l-5.527,5.611Z" style="fill:#fc0;fill-rule:nonzero;"/><path id="t113" serif:id="t" d="M66.992,93.172l5.699,-4.14l-2.07,-2.849l-3.629,6.989Z" style="fill:#fc0;fill-rule:nonzero;"/></g><g id="c57" serif:id="c"><path id="t114" serif:id="t" d="M75.273,93.172l-5.699,-4.14l2.071,-2.849l3.628,6.989Z" style="fill:#fc0;fill-rule:nonzero;"/><path id="t115" serif:id="t" d="M75.273,93.172l-2.177,-6.699l-3.349,1.088l5.526,5.611Z" style="fill:#fc0;fill-rule:nonzero;"/></g></g><g id="a23" serif:id="a"><g id="c58" serif:id="c"><path id="t116" serif:id="t" d="M71.133,80.429l-2.177,6.7l3.35,1.088l-1.173,-7.788Z" style="fill:#fc0;fill-rule:nonzero;"/><path id="t117" serif:id="t" d="M71.133,80.429l2.176,6.7l-3.349,1.088l1.173,-7.788Z" style="fill:#fc0;fill-rule:nonzero;"/></g><g id="c59" serif:id="c"><path id="t118" serif:id="t" d="M77.832,85.297l-7.044,0l0,3.522l7.044,-3.522Z" style="fill:#fc0;fill-rule:nonzero;"/><path id="t119" serif:id="t" d="M77.832,85.297l-5.699,4.14l-2.07,-2.849l7.769,-1.291Z" style="fill:#fc0;fill-rule:nonzero;"/></g></g></g></g></g></g></svg>